<svg width="149" height="140" viewBox="0 0 149 140" fill="none" xmlns="http://www.w3.org/2000/svg">
<path d="M34.0941 96.9218L34.5557 96.4957C36.4379 94.72 39.2435 94.4004 41.4808 95.6434C50.6787 100.757 75.964 111.234 100.752 90.1744C100.752 90.1744 128.026 69.7543 113.537 34.3478C112.578 32.0394 113.217 29.3759 115.064 27.7068C117.585 25.4695 121.456 25.7536 123.587 28.346C133.637 40.5981 153.844 81.5092 120.995 112.619C120.853 112.761 120.711 112.938 120.533 113.045C118.473 114.82 104.161 126.504 86.4404 127.392C86.2983 127.392 86.1918 127.392 86.0497 127.428C83.7414 127.712 56.8935 130.553 33.7389 105.196C31.5726 102.817 31.7502 99.1237 34.0941 96.9218Z" fill="#FFBC00"/>
<path d="M101.601 28.3767C101.636 28.6609 107.105 27.5244 107.105 27.5244C107.105 27.5244 106.928 22.4461 111.438 19.9246C111.438 19.9246 117.049 17.1546 120.387 19.7115L124.187 15.1659C124.187 15.1659 117.937 9.0221 108.384 13.8519C108.384 13.8519 100.464 17.4032 101.601 28.3767Z" fill="#FFE145"/>
<path d="M20.7018 102.386C20.8084 102.635 25.6382 99.7936 25.6382 99.7936C25.6382 99.7936 23.827 95.0703 27.2718 91.1994C27.2718 91.1994 31.6754 86.7602 35.6884 88.0742L37.8191 82.5342C37.8191 82.5342 29.9352 78.7343 22.442 86.4051C22.4065 86.4406 16.0496 92.4068 20.7018 102.386Z" fill="#FFE145"/>
<path d="M31.2136 94.0049L31.6752 93.5787C33.5574 91.803 36.363 91.4834 38.6003 92.7264C47.7982 97.8403 73.0835 108.317 97.8717 87.2574C97.8717 87.2574 125.146 66.8373 110.656 31.4308C109.698 29.1224 110.337 26.4589 112.183 24.7898C114.705 22.5525 118.576 22.8366 120.707 25.429C130.757 37.6811 150.964 78.5922 118.114 109.702C117.972 109.844 117.83 110.021 117.652 110.128C115.593 111.903 101.281 123.587 83.5599 124.475C83.4178 124.475 83.3113 124.475 83.1693 124.511C80.8609 124.795 54.013 127.636 30.8584 102.279C28.6921 99.9 28.8697 96.2067 31.2136 94.0049Z" fill="#FFE145"/>
<path d="M119.002 33.0288C131.396 57.0712 127.206 85.9433 107.354 102.208C87.6086 118.367 58.7365 116.875 37.6417 100.291" stroke="#FFBC00" stroke-width="6" stroke-miterlimit="10" stroke-linecap="round"/>
<path d="M1.97656 26.2949H6.86426C9.09147 26.2949 10.7064 26.6136 11.709 27.251C12.7188 27.8812 13.2236 28.8874 13.2236 30.2695C13.2236 31.2077 13.0016 31.9775 12.5576 32.5791C12.1208 33.1807 11.5371 33.5423 10.8066 33.6641V33.7715C11.8021 33.9935 12.5182 34.4089 12.9551 35.0176C13.3991 35.6263 13.6211 36.4355 13.6211 37.4453C13.6211 38.8776 13.1019 39.9948 12.0635 40.7969C11.0322 41.599 9.62858 42 7.85254 42H1.97656V26.2949ZM5.30664 32.5146H7.24023C8.14258 32.5146 8.79427 32.375 9.19531 32.0957C9.60352 31.8164 9.80762 31.3545 9.80762 30.71C9.80762 30.1084 9.58561 29.6787 9.1416 29.4209C8.70475 29.1559 8.01009 29.0234 7.05762 29.0234H5.30664V32.5146ZM5.30664 35.1572V39.25H7.47656C8.39323 39.25 9.06999 39.0745 9.50684 38.7236C9.94368 38.3727 10.1621 37.8356 10.1621 37.1123C10.1621 35.8089 9.23112 35.1572 7.36914 35.1572H5.30664ZM26.3721 42L25.2334 38.2617H19.5078L18.3691 42H14.7812L20.3242 26.2305H24.3955L29.96 42H26.3721ZM24.4385 35.4688C23.3857 32.0814 22.7913 30.1657 22.6553 29.7217C22.5264 29.2777 22.4333 28.9268 22.376 28.6689C22.1396 29.5856 21.4629 31.8522 20.3457 35.4688H24.4385ZM45.8799 42H41.6475L34.8154 30.1191H34.7188C34.8548 32.2174 34.9229 33.7142 34.9229 34.6094V42H31.9473V26.2949H36.1475L42.9688 38.0576H43.0439C42.9365 36.0166 42.8828 34.5736 42.8828 33.7285V26.2949H45.8799V42ZM59.458 42L58.3193 38.2617H52.5938L51.4551 42H47.8672L53.4102 26.2305H57.4814L63.0459 42H59.458ZM57.5244 35.4688C56.4717 32.0814 55.8773 30.1657 55.7412 29.7217C55.6123 29.2777 55.5192 28.9268 55.4619 28.6689C55.2256 29.5856 54.5488 31.8522 53.4316 35.4688H57.5244ZM78.9658 42H74.7334L67.9014 30.1191H67.8047C67.9408 32.2174 68.0088 33.7142 68.0088 34.6094V42H65.0332V26.2949H69.2334L76.0547 38.0576H76.1299C76.0225 36.0166 75.9688 34.5736 75.9688 33.7285V26.2949H78.9658V42ZM92.5439 42L91.4053 38.2617H85.6797L84.541 42H80.9531L86.4961 26.2305H90.5674L96.1318 42H92.5439ZM90.6104 35.4688C89.5576 32.0814 88.9632 30.1657 88.8271 29.7217C88.6982 29.2777 88.6051 28.9268 88.5479 28.6689C88.3115 29.5856 87.6348 31.8522 86.5176 35.4688H90.6104ZM11.5908 72L10.4521 68.2617H4.72656L3.58789 72H0L5.54297 56.2305H9.61426L15.1787 72H11.5908ZM9.65723 65.4688C8.60449 62.0814 8.01009 60.1657 7.87402 59.7217C7.74512 59.2777 7.65202 58.9268 7.59473 58.6689C7.3584 59.5856 6.68164 61.8522 5.56445 65.4688H9.65723ZM20.4961 63.6855H21.5918C22.6159 63.6855 23.3822 63.485 23.8906 63.084C24.3991 62.6758 24.6533 62.085 24.6533 61.3115C24.6533 60.5309 24.4385 59.9544 24.0088 59.582C23.5863 59.2096 22.9202 59.0234 22.0107 59.0234H20.4961V63.6855ZM28.0156 61.1934C28.0156 62.8835 27.4857 64.1761 26.4258 65.0713C25.373 65.9665 23.8727 66.4141 21.9248 66.4141H20.4961V72H17.166V56.2949H22.1826C24.0876 56.2949 25.5342 56.7067 26.5225 57.5303C27.5179 58.3467 28.0156 59.5677 28.0156 61.1934ZM34.3105 63.6855H35.4062C36.4303 63.6855 37.1966 63.485 37.7051 63.084C38.2135 62.6758 38.4678 62.085 38.4678 61.3115C38.4678 60.5309 38.2529 59.9544 37.8232 59.582C37.4007 59.2096 36.7347 59.0234 35.8252 59.0234H34.3105V63.6855ZM41.8301 61.1934C41.8301 62.8835 41.3001 64.1761 40.2402 65.0713C39.1875 65.9665 37.6872 66.4141 35.7393 66.4141H34.3105V72H30.9805V56.2949H35.9971C37.902 56.2949 39.3486 56.7067 40.3369 57.5303C41.3324 58.3467 41.8301 59.5677 41.8301 61.1934Z" fill="#083A9B"/>
</svg>